<svg width="120" height="120" viewBox="0 0 120 120" fill="none" xmlns="http://www.w3.org/2000/svg">
<g filter="url(#filter0_d_16_240)">
<circle cx="61" cy="54" r="52" fill="#BC2DFF"/>
</g>
<path d="M47.6875 51.6354C49.7785 51.6354 51.6486 52.9591 52.3448 54.9286C53.072 56.9858 55.3283 58.0638 57.386 57.3365C59.4425 56.6091 60.5201 54.352 59.793 52.2935C58.4513 48.5113 55.4394 45.6588 51.7733 44.4117L61.6088 41.6012C63.7048 41.0012 64.9206 38.8155 64.3207 36.7163C63.722 34.6196 61.5372 33.4033 59.4388 34.0071L47.1938 37.509L57.17 28.9542C58.8265 27.5342 59.0178 25.0398 57.5982 23.3827C56.18 21.7231 53.6866 21.5301 52.0325 22.9521L39.6394 33.5827L42.3957 27.6074C43.3081 25.6255 42.4439 23.2781 40.4627 22.3631C38.4791 21.4549 36.1338 22.3115 35.2129 24.2965L24.8417 47.5111C23.6273 50.2277 23 53.1789 23 56.1548C23 63.4773 28.9373 69.4168 36.2572 69.4168L48.5886 69.416C52.5225 69.1332 56.1368 67.0266 58.3562 63.7136C59.5693 61.8997 59.0834 59.4461 57.2723 58.2298C55.4641 57.0192 53.0077 57.5008 51.798 59.3159C50.8722 60.6866 49.3416 61.5139 47.6875 61.5139C44.9645 61.5139 42.75 59.2987 42.75 56.5746C42.75 53.8457 44.9595 51.6354 47.6875 51.6354ZM88.7428 37.8054L76.4114 37.8059C72.4775 38.0885 68.8632 40.1953 66.6438 43.5083C65.4307 45.3222 65.9166 47.7758 67.7277 48.9921C69.5373 50.2037 71.9925 49.7214 73.2096 47.9078C74.1278 46.5356 75.6584 45.5971 77.3125 45.5971C80.0355 45.5971 82.25 47.8124 82.25 50.5364C82.25 53.2604 80.0355 55.3645 77.3125 55.3645C75.2215 55.3645 73.3514 54.0408 72.6552 52.0713C71.928 50.014 69.6717 48.9361 67.614 49.6634C65.5575 50.3908 64.4799 52.6479 65.207 54.7064C66.545 58.4898 69.5557 61.346 73.2255 62.5845L63.39 65.395C61.294 65.995 60.0782 68.1807 60.6781 70.2799C61.276 72.3766 63.4628 73.5966 65.5612 72.9928L77.8063 69.4933L67.83 78.0481C66.1735 79.4682 65.9822 81.9625 67.4018 83.6196C68.8238 85.2768 71.3185 85.4694 72.9726 84.048L85.3657 73.4174L82.6093 79.3927C81.697 81.3746 82.5612 83.722 84.5424 84.637C86.5198 85.5457 88.8688 84.6891 89.7848 82.7045L100.156 59.4899C101.37 56.9945 102 54.0433 102 51.0673C102 43.7449 96.0627 37.8054 88.7428 37.8054Z" fill="white"/>
<defs>
<filter id="filter0_d_16_240" x="0" y="0" width="120" height="120" filterUnits="userSpaceOnUse" color-interpolation-filters="sRGB">
<feFlood flood-opacity="0" result="BackgroundImageFix"/>
<feColorMatrix in="SourceAlpha" type="matrix" values="0 0 0 0 0 0 0 0 0 0 0 0 0 0 0 0 0 0 127 0" result="hardAlpha"/>
<feOffset dx="-1" dy="6"/>
<feGaussianBlur stdDeviation="4"/>
<feComposite in2="hardAlpha" operator="out"/>
<feColorMatrix type="matrix" values="0 0 0 0 0 0 0 0 0 0 0 0 0 0 0 0 0 0 0.25 0"/>
<feBlend mode="normal" in2="BackgroundImageFix" result="effect1_dropShadow_16_240"/>
<feBlend mode="normal" in="SourceGraphic" in2="effect1_dropShadow_16_240" result="shape"/>
</filter>
</defs>
</svg>
