<svg xmlns="http://www.w3.org/2000/svg" xmlns:xlink="http://www.w3.org/1999/xlink" width="1366" zoomAndPan="magnify" viewBox="0 0 1024.5 576" height="768" preserveAspectRatio="xMidYMid meet" version="1.2"><defs><clipPath id="b5ce8696d6"><path d="M 0 13.371094 L 1024 13.371094 L 1024 575.597656 L 0 575.597656 Z M 0 13.371094 "/></clipPath><clipPath id="31aeb03230"><path d="M 0 0.140625 L 1024 0.140625 L 1024 562.367188 L 0 562.367188 Z M 0 0.140625 "/></clipPath></defs><g id="7d8ed6abd4"><g clip-rule="nonzero" clip-path="url(#b5ce8696d6)"><path style=" stroke:none;fill-rule:nonzero;fill:#bc2dff;fill-opacity:1;" d="M -10.714844 54.308594 C 363.679688 249.769531 618.96875 -100.996094 1026.078125 54.308594 C 1433.1875 209.613281 1406.519531 390.859375 1026.078125 535.503906 C 645.632812 680.148438 380.75 373.445312 -10.714844 535.503906 C -402.175781 697.5625 -385.109375 -141.15625 -10.714844 54.308594 Z M -10.714844 54.308594 "/></g><g clip-rule="nonzero" clip-path="url(#31aeb03230)"><path style=" stroke:none;fill-rule:nonzero;fill:#ffffff;fill-opacity:1;" d="M -10.714844 41.078125 C 363.679688 236.539062 618.96875 -114.226562 1026.078125 41.078125 C 1433.1875 196.382812 1406.519531 377.628906 1026.078125 522.273438 C 645.632812 666.917969 380.75 360.214844 -10.714844 522.273438 C -402.175781 684.332031 -385.109375 -154.386719 -10.714844 41.078125 Z M -10.714844 41.078125 "/></g></g></svg>