<svg xmlns="http://www.w3.org/2000/svg" xmlns:xlink="http://www.w3.org/1999/xlink" width="1366" zoomAndPan="magnify" viewBox="0 0 1024.5 576" height="768" preserveAspectRatio="xMidYMid meet" version="1.2"><defs><clipPath id="ac2d76aeed"><path d="M 0 13.371094 L 1024 13.371094 L 1024 575.597656 L 0 575.597656 Z M 0 13.371094 "/></clipPath><clipPath id="426c5b3f5b"><path d="M 0 6.753906 L 1024 6.753906 L 1024 568.980469 L 0 568.980469 Z M 0 6.753906 "/></clipPath></defs><g id="22c4043b6c"><g clip-rule="nonzero" clip-path="url(#ac2d76aeed)"><path style=" stroke:none;fill-rule:nonzero;fill:#bc2dff;fill-opacity:1;" d="M -10.714844 54.308594 C 363.679688 249.769531 618.96875 -100.996094 1026.078125 54.308594 C 1433.1875 209.613281 1406.519531 390.859375 1026.078125 535.503906 C 645.632812 680.148438 380.75 373.445312 -10.714844 535.503906 C -402.175781 697.5625 -385.109375 -141.15625 -10.714844 54.308594 Z M -10.714844 54.308594 "/></g><g clip-rule="nonzero" clip-path="url(#426c5b3f5b)"><path style=" stroke:none;fill-rule:nonzero;fill:#ffffff;fill-opacity:1;" d="M -10.714844 47.691406 C 363.679688 243.15625 618.96875 -107.613281 1026.078125 47.691406 C 1433.1875 202.996094 1406.519531 384.246094 1026.078125 528.890625 C 645.632812 673.53125 380.75 366.832031 -10.714844 528.890625 C -402.175781 690.945312 -385.109375 -147.773438 -10.714844 47.691406 Z M -10.714844 47.691406 "/></g></g></svg>