<svg width="52" height="52" viewBox="0 0 52 52" fill="none" xmlns="http://www.w3.org/2000/svg">
<path d="M49.576 8.21651L42.8552 1.50194C42.3811 1.02576 41.8176 0.647943 41.1971 0.390192C40.5765 0.132442 39.9112 -0.000161046 39.2392 1.46783e-07C37.8698 1.46783e-07 36.5825 0.536408 35.6169 1.50194L28.385 8.73398C27.9088 9.20808 27.531 9.77159 27.2733 10.3921C27.0155 11.0127 26.8829 11.6781 26.8831 12.35C26.8831 13.7194 27.4195 15.0068 28.385 15.9723L33.6733 21.2607C32.4354 23.9892 30.7144 26.4713 28.5933 28.5874C26.4775 30.7137 23.9955 32.441 21.2667 33.6864L15.9784 28.3981C15.5043 27.9219 14.9408 27.5441 14.3203 27.2863C13.6997 27.0286 13.0344 26.896 12.3624 26.8961C10.993 26.8961 9.70568 27.4325 8.74016 28.3981L1.50192 35.6238C1.02516 36.0988 0.647027 36.6633 0.389268 37.285C0.13151 37.9066 -0.000782001 38.5731 3.47736e-06 39.2461C3.47736e-06 40.6155 0.536403 41.9029 1.50192 42.8684L8.21007 49.5767C9.74986 51.1228 11.8765 52 14.06 52C14.5207 52 14.9624 51.9621 15.3978 51.8864C23.9045 50.4854 32.3418 45.9607 39.1509 39.1578C45.9537 32.3612 50.4721 23.9301 51.8919 15.3981C52.3211 12.7917 51.4565 10.1097 49.576 8.21651Z" fill="#D0D0D0"/>
</svg>
