<svg width="52" height="52" viewBox="0 0 52 52" fill="none" xmlns="http://www.w3.org/2000/svg">
<path d="M47.4284 0.00995441L6.29113 3.17396C5.52413 3.23496 3.12086 4.84896 2.79066 8.34996L0.0398571 37.677C-0.102276 39.207 0.00605714 42.781 2.60086 43.338L42.6305 51.918C42.8836 51.973 43.141 52 43.3949 52C44.363 52 47.8513 51.101 48.2136 47.207L51.9593 7.27496C52.3112 3.54196 50.3464 -0.219046 47.4284 0.00995441ZM6.4012 4.96296L47.5332 1.79796C48.051 1.75167 48.5679 1.89894 49.0074 2.21796L28.0774 24.093L28.1025 23.851L16.9078 22.573L17.4885 17.002L28.7551 17.614L29.2881 12.489L14.0842 12.397L13.4593 18.389L5.62899 5.39696C5.88813 5.13596 6.1568 4.98196 6.4012 4.96296ZM1.60679 37.866L4.35759 8.53996C4.40699 8.00996 4.52313 7.48496 4.69126 7.00496L13.1967 20.903L12.6464 26.179L1.62586 39.247C1.56995 38.7893 1.56355 38.3255 1.60679 37.866ZM42.9226 50.156L2.89206 41.575C2.67193 41.529 2.45353 41.357 2.25939 41.086L12.3396 29.134L11.5969 36.267L26.3848 40.34L26.9195 35.215L15.8496 32.728L16.432 27.154L27.5713 28.977L27.7715 27.05L28.9657 25.845L31.5623 29.839L44.5857 49.873C44.0734 50.1759 43.4888 50.2753 42.9226 50.156ZM50.3932 6.18796L46.6466 46.119C46.5556 47.092 46.2506 47.991 45.7834 48.701L30.1392 24.636L50.0379 3.57596C50.3551 4.32296 50.4834 5.23296 50.3932 6.18796Z" fill="#D0D0D0"/>
</svg>
