<svg width="52" height="52" viewBox="0 0 52 52" fill="none" xmlns="http://www.w3.org/2000/svg">
<path d="M52 24.3783C52 37.8422 40.3585 48.7567 26 48.7567C23.4249 48.7604 20.8604 48.4021 18.3722 47.691C16.4742 48.7219 12.116 50.7 4.784 51.9886C4.134 52.1 3.64 51.3756 3.89675 50.7279C5.04725 47.8164 6.08725 43.9367 6.39925 40.3984C2.418 36.1148 0 30.5078 0 24.3783C0 10.9145 11.6415 0 26 0C40.3585 0 52 10.9145 52 24.3783ZM16.25 24.3783C16.25 23.4547 15.9076 22.5689 15.2981 21.9158C14.6886 21.2626 13.862 20.8957 13 20.8957C12.138 20.8957 11.3114 21.2626 10.7019 21.9158C10.0924 22.5689 9.75 23.4547 9.75 24.3783C9.75 25.302 10.0924 26.1878 10.7019 26.8409C11.3114 27.494 12.138 27.861 13 27.861C13.862 27.861 14.6886 27.494 15.2981 26.8409C15.9076 26.1878 16.25 25.302 16.25 24.3783ZM29.25 24.3783C29.25 23.4547 28.9076 22.5689 28.2981 21.9158C27.6886 21.2626 26.862 20.8957 26 20.8957C25.138 20.8957 24.3114 21.2626 23.7019 21.9158C23.0924 22.5689 22.75 23.4547 22.75 24.3783C22.75 25.302 23.0924 26.1878 23.7019 26.8409C24.3114 27.494 25.138 27.861 26 27.861C26.862 27.861 27.6886 27.494 28.2981 26.8409C28.9076 26.1878 29.25 25.302 29.25 24.3783ZM39 27.861C39.862 27.861 40.6886 27.494 41.2981 26.8409C41.9076 26.1878 42.25 25.302 42.25 24.3783C42.25 23.4547 41.9076 22.5689 41.2981 21.9158C40.6886 21.2626 39.862 20.8957 39 20.8957C38.138 20.8957 37.3114 21.2626 36.7019 21.9158C36.0924 22.5689 35.75 23.4547 35.75 24.3783C35.75 25.302 36.0924 26.1878 36.7019 26.8409C37.3114 27.494 38.138 27.861 39 27.861Z" fill="#D0D0D0"/>
</svg>
