<svg width="94" height="94" viewBox="0 0 94 94" fill="none" xmlns="http://www.w3.org/2000/svg">
<path d="M79.6493 32.6043V21.5299M45.8015 21.5652C56.1591 21.007 66.9339 26.976 70.5098 40.6315C74.4972 40.9592 78.2166 42.771 80.9327 45.7086C83.6488 48.6463 85.164 52.496 85.1788 56.4969C85.1936 60.4977 83.7068 64.3585 81.0125 67.3161C78.3181 70.2738 74.6122 72.1129 70.6273 72.4701H25.9675C4.57859 69.5678 1.65283 38.4245 25.9675 34.2434C27.8705 30.5761 30.7048 27.4741 34.1859 25.2487C37.6669 23.0233 41.6722 21.753 45.7995 21.5652H45.8015ZM85.1875 27.0681H74.1112H85.1875Z" stroke="#BC2DFF" stroke-linecap="round" stroke-linejoin="round"/>
<path d="M47 65.1929C55.2782 65.1929 61.9891 58.4821 61.9891 50.2038C61.9891 41.9256 55.2782 35.2148 47 35.2148C38.7218 35.2148 32.0109 41.9256 32.0109 50.2038C32.0109 58.4821 38.7218 65.1929 47 65.1929Z" stroke="#BC2DFF" stroke-linecap="round" stroke-linejoin="round"/>
<path d="M47.002 65.1929V35.2128M32.0109 50.2038H61.9891H32.0109ZM34.0554 42.6486H59.9465H34.0554ZM34.0574 57.7571H59.9465H34.0574Z" stroke="#BC2DFF" stroke-linecap="round" stroke-linejoin="round"/>
<path d="M47 65.1929C51.1716 65.1929 54.5533 58.4821 54.5533 50.2038C54.5533 41.9256 51.1716 35.2148 47 35.2148C42.8284 35.2148 39.4467 41.9256 39.4467 50.2038C39.4467 58.4821 42.8284 65.1929 47 65.1929Z" stroke="#BC2DFF" stroke-linecap="round" stroke-linejoin="round"/>
</svg>
