<svg width="76" height="76" viewBox="0 0 76 76" fill="none" xmlns="http://www.w3.org/2000/svg">
<path d="M68.5499 7.98741C68.5247 7.86559 68.4652 7.75352 68.3784 7.66437C68.2916 7.57523 68.1812 7.51272 68.0601 7.48421C59.988 5.50999 41.3413 12.5444 31.2283 22.6501C29.4259 24.4376 27.7825 26.3786 26.3165 28.451C23.1993 28.169 20.0821 28.4065 17.428 29.5643C9.93344 32.8596 7.75289 41.466 7.1443 45.1606C7.11132 45.3631 7.12541 45.5704 7.18546 45.7665C7.24551 45.9626 7.34991 46.1423 7.49058 46.2916C7.63125 46.4408 7.8044 46.5557 7.99661 46.6273C8.18883 46.6989 8.39494 46.7253 8.59899 46.7044L20.6328 45.3833C20.6411 46.2909 20.6956 47.1976 20.7961 48.0997C20.8589 48.7232 21.1371 49.3053 21.5828 49.7459L26.2423 54.4053C26.6832 54.8513 27.2659 55.1296 27.8899 55.192C28.7866 55.292 29.6878 55.3465 30.59 55.3553L29.2704 67.3787C29.2498 67.5825 29.2763 67.7883 29.3479 67.9802C29.4195 68.1721 29.5343 68.345 29.6834 68.4854C29.8325 68.6259 30.0118 68.7302 30.2076 68.7903C30.4035 68.8504 30.6105 68.8646 30.8127 68.8319C34.5087 68.2382 43.133 66.0577 46.409 58.5645C47.5668 55.9075 47.8043 52.8066 47.5371 49.7043C49.6156 48.2397 51.5621 46.5962 53.3544 44.7925C63.5045 34.6987 70.4944 16.4617 68.5499 7.98741ZM44.3323 31.7166C43.4458 30.8303 42.842 29.7009 42.5973 28.4713C42.3526 27.2418 42.478 25.9673 42.9577 24.8091C43.4374 23.6508 44.2498 22.6608 45.2922 21.9643C46.3345 21.2678 47.56 20.896 48.8137 20.896C50.0673 20.896 51.2928 21.2678 52.3352 21.9643C53.3775 22.6608 54.1899 23.6508 54.6696 24.8091C55.1493 25.9673 55.2747 27.2418 55.0301 28.4713C54.7854 29.7009 54.1816 30.8303 53.295 31.7166C52.7069 32.3059 52.0084 32.7735 51.2395 33.0924C50.4705 33.4114 49.6462 33.5756 48.8137 33.5756C47.9812 33.5756 47.1568 33.4114 46.3879 33.0924C45.6189 32.7735 44.9204 32.3059 44.3323 31.7166Z" stroke="#BC2DFF" stroke-width="2" stroke-linecap="round" stroke-linejoin="round"/>
<path d="M16.2747 52.25C14.7949 52.4316 13.4183 53.1025 12.3634 54.1559C9.74789 56.7803 9.5 66.5 9.5 66.5C9.5 66.5 19.2256 66.2521 21.8426 63.6337C22.9003 62.5804 23.5723 61.2015 23.75 59.7194" stroke="#BC2DFF" stroke-width="2" stroke-linecap="round" stroke-linejoin="round"/>
</svg>
