<svg width="86" height="86" viewBox="0 0 86 86" fill="none" xmlns="http://www.w3.org/2000/svg">
<path d="M20.2673 73.3831C19.7528 73.8305 19.1214 74.1218 18.4471 74.2228C17.7728 74.3239 17.0837 74.2304 16.4607 73.9535C15.8377 73.6766 15.3066 73.2277 14.9297 72.6595C14.5529 72.0913 14.346 71.4274 14.3333 70.7457V62.7083C12.4326 62.7083 10.6097 61.9533 9.26572 60.6093C7.92171 59.2652 7.16666 57.4424 7.16666 55.5417V30.4583C7.16666 28.5576 7.92171 26.7347 9.26572 25.3907C10.6097 24.0467 12.4326 23.2917 14.3333 23.2917H53.75C55.6507 23.2917 57.4736 24.0467 58.8176 25.3907C60.1616 26.7347 60.9167 28.5576 60.9167 30.4583V55.5417C60.9167 57.4424 60.1616 59.2652 58.8176 60.6093C57.4736 61.9533 55.6507 62.7083 53.75 62.7083H35.8441L20.2673 73.3831ZM23.2917 62.2998C23.6182 62.2979 23.9388 62.2128 24.2233 62.0526L32.6621 56.1831C33.2626 55.7654 33.9766 55.5416 34.7082 55.5417H50.1667C51.117 55.5417 52.0285 55.1641 52.7005 54.4921C53.3725 53.8201 53.75 52.9087 53.75 51.9583V34.0417C53.75 33.0913 53.3725 32.1799 52.7005 31.5079C52.0285 30.8359 51.117 30.4583 50.1667 30.4583H17.9167C16.9663 30.4583 16.0549 30.8359 15.3829 31.5079C14.7109 32.1799 14.3333 33.0913 14.3333 34.0417V51.9583C14.3333 53.8933 15.8706 55.4772 17.9167 55.5417C19.3858 55.599 20.4501 55.8391 20.941 56.3515C21.3997 56.8317 21.4247 57.6415 21.5 59.1823C21.5107 59.4081 21.5107 59.8166 21.5 60.5082C21.5 60.9833 21.6888 61.4391 22.0248 61.7751C22.3608 62.1111 22.8165 62.2998 23.2917 62.2998ZM64.5 44.849C64.4885 45.2909 64.4885 45.733 64.5 46.1748V44.849C64.5717 43.3082 64.6003 42.4983 65.059 42.0182C65.5499 41.5057 66.6142 41.2657 68.0833 41.2083C70.1294 41.1438 71.6667 39.56 71.6667 37.625V19.7083C71.6667 18.758 71.2891 17.8465 70.6171 17.1745C69.9451 16.5025 69.0337 16.125 68.0833 16.125H35.8333C34.883 16.125 33.9715 16.5025 33.2995 17.1745C32.6275 17.8465 32.25 18.758 32.25 19.7083H25.0833V16.125C25.0833 14.2243 25.8384 12.4014 27.1824 11.0574C28.5264 9.71339 30.3493 8.95833 32.25 8.95833H71.6667C73.5674 8.95833 75.3902 9.71339 76.7343 11.0574C78.0783 12.4014 78.8333 14.2243 78.8333 16.125V41.2083C78.8333 43.109 78.0783 44.9319 76.7343 46.2759C75.3902 47.6199 73.5674 48.375 71.6667 48.375V56.4124C71.654 57.0941 71.4471 57.758 71.0702 58.3262C70.6934 58.8944 70.1623 59.3433 69.5393 59.6202C68.9162 59.8971 68.2271 59.9905 67.5529 59.8895C66.8786 59.7884 66.2471 59.4971 65.7327 59.0497L64.5 58.2041V44.8526V44.849Z" fill="#151515"/>
</svg>
